<svg width="201" height="201" viewBox="0 0 201 201" fill="none" xmlns="http://www.w3.org/2000/svg">
<circle cx="100.5" cy="100.5" r="96" fill="black" stroke="black" stroke-width="9"/>
<path d="M74.0723 87.6875C75.7975 87.6875 76.6602 88.2734 76.6602 89.4453C76.6602 90.6172 75.765 91.2031 73.9746 91.2031C69.2871 91.2031 64.86 91.9355 60.6934 93.4004C56.5592 94.8652 53.125 96.737 50.3906 99.0156C47.6562 101.294 45.5078 103.801 43.9453 106.535C42.3828 109.27 41.6016 111.955 41.6016 114.592C41.6016 118.824 43.3757 122.323 46.9238 125.09C50.472 127.824 55.7617 129.191 62.793 129.191C70.8333 129.191 76.8555 127.271 80.8594 123.43C82.9427 121.411 83.9844 118.807 83.9844 115.617C83.9844 112.395 82.9264 109.855 80.8105 108C78.6947 106.145 75.9766 105.217 72.6562 105.217C69.3685 105.217 66.097 105.868 62.8418 107.17C59.6191 108.472 57.0638 110.214 55.1758 112.395L52.4902 110.002C54.3783 107.593 57.1777 105.656 60.8887 104.191C64.5996 102.727 67.985 101.994 71.0449 101.994C74.1048 101.994 76.5625 102.271 78.418 102.824C80.306 103.378 82.015 104.191 83.5449 105.266C86.8327 107.609 88.5742 111.223 88.7695 116.105C88.6393 119.035 87.7604 121.672 86.1328 124.016C84.5052 126.359 82.3568 128.264 79.6875 129.729C74.2839 132.723 67.9199 134.221 60.5957 134.221C52.7507 134.221 45.8333 132.398 39.8438 128.752C36.9792 126.994 34.6842 124.715 32.959 121.916C31.2337 119.084 30.3711 115.943 30.3711 112.492C30.3711 100.253 41.0807 92.3913 62.5 88.9082C58.8867 87.6712 56.2826 86.0273 54.6875 83.9766C53.0924 81.9258 52.2949 79.7936 52.2949 77.5801C52.2949 73.6087 54.4759 70.1257 58.8379 67.1309C63.2324 64.1035 68.75 62.5898 75.3906 62.5898C81.4779 62.5898 86.556 64.2174 90.625 67.4727C93.6523 69.8815 95.2311 73.0553 95.3613 76.9941C95.3613 78.8171 94.8242 80.2005 93.75 81.1445C92.6758 82.056 91.39 82.5117 89.8926 82.5117C88.3952 82.5117 87.1094 82.1048 86.0352 81.291C84.9935 80.4447 84.4727 79.4681 84.4727 78.3613C84.4727 77.2546 84.668 76.3919 85.0586 75.7734C85.4492 75.1224 85.8724 74.6504 86.3281 74.3574C86.8164 74.0319 87.3698 73.7878 87.9883 73.625C88.8997 73.3971 89.6322 73.2832 90.1855 73.2832C89.1439 71.1348 87.2884 69.4258 84.6191 68.1562C81.9824 66.8542 78.9062 66.2031 75.3906 66.2031C71.875 66.2031 68.6686 67.2122 65.7715 69.2305C62.9069 71.2161 61.4746 73.9342 61.4746 77.3848C61.4746 81.0957 62.7604 84.0091 65.332 86.125C66.7318 87.2969 68.4082 87.8828 70.3613 87.8828L74.0723 87.6875ZM153.174 132.365C152.035 131.128 151.27 129.745 150.879 128.215C150.488 126.685 150.293 124.797 150.293 122.551C150.293 120.272 150.651 117.31 151.367 113.664C152.311 108.879 154.02 102.694 156.494 95.1094C155.257 95.3047 153.516 95.6139 151.27 96.0371C149.056 96.4277 147.493 96.6882 146.582 96.8184C143.815 109.579 138.835 119.475 131.641 126.506C129.167 128.947 126.221 130.917 122.803 132.414C119.417 133.911 115.706 134.66 111.67 134.66C107.633 134.66 104.215 133.488 101.416 131.145C98.6165 128.801 97.2168 125.66 97.2168 121.721C97.2168 117.782 98.8118 113.745 102.002 109.611C96.7285 104.696 94.0918 98.8854 94.0918 92.1797C94.0918 88.1758 94.8242 84.5137 96.2891 81.1934C97.7865 77.873 99.7559 75.0898 102.197 72.8438C104.671 70.5977 107.536 68.6934 110.791 67.1309C116.976 64.1686 123.844 62.6875 131.396 62.6875H157.91C158.496 62.6875 158.919 62.9642 159.18 63.5176C159.147 63.7454 159.033 63.957 158.838 64.1523C158.675 64.3477 158.561 64.5267 158.496 64.6895C154.395 69.6048 151.204 76.5547 148.926 85.5391C148.405 87.5247 147.786 90.1452 147.07 93.4004L157.812 91.5938C163.086 80.2982 168.848 72.8438 175.098 69.2305C177.148 68.026 179.102 67.4238 180.957 67.4238C182.812 67.4238 184.359 67.8958 185.596 68.8398C186.865 69.7513 187.5 71.2324 187.5 73.2832C187.5 75.3014 186.768 77.4499 185.303 79.7285C183.87 82.0072 182.031 84.0091 179.785 85.7344C175.293 89.1523 170.703 91.6426 166.016 93.2051C164.486 96.7207 162.858 101.978 161.133 108.977C159.44 115.943 158.594 120.923 158.594 123.918C158.594 126.913 159.229 128.41 160.498 128.41C162.354 128.41 164.811 126.278 167.871 122.014L170.605 124.602C168.88 127.173 166.878 129.419 164.6 131.34C162.354 133.26 160.173 134.221 158.057 134.221C155.973 134.221 154.346 133.602 153.174 132.365ZM99.8047 94.377C99.8047 99.2923 101.335 103.605 104.395 107.316C108.464 103.573 113.477 100.643 119.434 98.5273C125.391 96.4115 131.445 95.1094 137.598 94.6211C140.658 80.6237 144.222 71.1836 148.291 66.3008C145.817 65.9102 142.871 65.7148 139.453 65.7148C136.035 65.7148 132.861 65.9427 129.932 66.3984C127.002 66.8216 124.056 67.4889 121.094 68.4004C118.132 69.3118 115.381 70.5488 112.842 72.1113C110.335 73.6738 108.105 75.4805 106.152 77.5312C101.921 81.8607 99.8047 87.4759 99.8047 94.377ZM104.688 111.516C102.279 114.868 101.074 118.042 101.074 121.037C101.074 123.999 101.888 126.473 103.516 128.459C105.176 130.445 107.357 131.438 110.059 131.438C112.793 131.438 115.299 130.949 117.578 129.973C119.857 128.964 121.875 127.564 123.633 125.773C125.391 123.951 126.986 121.981 128.418 119.865C129.85 117.717 131.12 115.324 132.227 112.688C134.245 107.902 135.872 103.036 137.109 98.0879C123.405 99.2272 113.363 102.938 106.982 109.221C109.717 110.686 112.223 111.418 114.502 111.418C116.813 111.418 118.376 111.385 119.189 111.32L120.312 113.908C118.62 114.104 116.878 114.201 115.088 114.201C111.279 114.201 107.812 113.306 104.688 111.516ZM181.982 70.5C180.615 70.5 179.134 71.2161 177.539 72.6484C175.977 74.0807 174.512 75.8874 173.145 78.0684C170.833 81.8444 168.945 85.4902 167.48 89.0059C170.768 87.7689 173.714 86.1087 176.318 84.0254C181.234 80.0866 183.691 76.5059 183.691 73.2832C183.691 71.4277 183.122 70.5 181.982 70.5Z" fill="white"/>
</svg>
