 <svg  version="1.0" xmlns="http://www.w3.org/2000/svg"  width="2241.000000pt" height="531.000000pt" viewBox="0 0 2241.000000 531.000000"  preserveAspectRatio="xMidYMid meet">  <g transform="translate(0.000000,531.000000) scale(0.100000,-0.100000)" fill="#fdfdfd" stroke="none"> <path d="M477 4843 c-4 -3 -7 -264 -7 -579 l0 -574 23 -5 c12 -3 220 -4 462 -3 l440 3 0 155 0 155 -229 3 c-149 1 -234 6 -243 13 -15 13 -18 75 -3 84 6 4 89 6 185 5 95 0 185 2 199 6 l25 6 3 149 c2 82 2 154 0 159 -2 6 -79 10 -197 10 -106 0 -200 3 -209 6 -17 7 -22 69 -8 91 6 9 70 13 242 15 l235 3 0 150 0 150 -456 3 c-250 1 -459 -1 -462 -5z"/> <path d="M1786 4841 c-6 -8 3 -46 22 -91 5 -14 18 -45 27 -70 10 -25 23 -58 30 -75 13 -31 37 -92 60 -155 15 -40 25 -68 90 -235 57 -147 72 -186 122 -320 15 -39 24 -60 57 -138 9 -21 16 -44 16 -51 0 -23 25 -26 234 -26 147 0 207 3 218 13 15 11 34 53 74 160 28 74 47 123 59 152 7 17 20 49 29 73 9 23 23 61 32 85 9 23 22 58 29 77 23 64 43 114 75 195 18 44 38 97 46 118 8 20 21 56 30 80 9 23 23 60 31 82 8 22 21 55 29 73 28 65 36 62 -205 62 -133 0 -222 -4 -226 -10 -9 -14 -53 -135 -76 -210 -12 -36 -26 -76 -31 -90 -6 -14 -14 -38 -19 -55 -9 -35 -36 -111 -48 -140 -5 -11 -12 -31 -15 -45 -12 -56 -56 -79 -56 -30 0 11 -6 34 -14 52 -17 42 -35 94 -46 133 -5 17 -14 46 -21 65 -6 19 -17 51 -24 70 -7 19 -18 51 -24 70 -7 19 -17 49 -21 65 -11 40 -33 97 -43 113 -10 14 -432 18 -441 3z"/> <path d="M3577 4843 c-4 -3 -7 -262 -7 -574 0 -552 1 -569 19 -579 24 -12 879 -14 899 -2 9 7 12 45 10 158 l-3 149 -240 5 c-132 3 -241 7 -242 8 -2 1 -3 22 -3 47 l0 45 194 0 c107 0 201 3 210 6 14 5 16 29 16 165 l0 159 -207 2 -208 3 -3 29 c-2 15 -1 39 2 52 l6 24 238 2 237 3 0 150 0 150 -456 3 c-250 1 -459 -1 -462 -5z"/> <path d="M4942 4268 l3 -583 190 -3 c105 -1 200 0 213 3 22 5 22 6 22 210 0 112 4 206 9 209 11 7 36 -14 58 -50 10 -17 44 -66 76 -110 31 -43 85 -117 119 -164 33 -47 66 -88 72 -92 20 -14 330 -9 349 5 16 11 17 55 15 582 l-3 570 -217 3 -218 2 0 -209 c0 -115 -4 -212 -9 -215 -7 -5 -99 119 -272 367 l-41 57 -184 0 -184 0 2 -582z"/> <path d="M6496 4834 c-12 -30 -7 -269 6 -282 8 -8 53 -12 138 -12 85 0 130 -4 138 -12 9 -9 12 -117 12 -425 l0 -413 23 -5 c12 -3 108 -4 212 -3 l190 3 5 417 c3 263 9 421 15 427 6 6 71 12 145 13 l135 3 0 150 0 150 -506 3 c-456 2 -507 1 -513 -14z"/> <path d="M8667 4844 c-4 -4 -7 -265 -7 -580 0 -512 2 -572 16 -578 9 -3 102 -6 209 -6 147 0 195 3 204 13 6 8 12 81 13 193 l3 179 129 3 c86 2 133 -1 142 -9 11 -9 14 -50 14 -189 0 -153 2 -179 16 -184 32 -12 389 -7 407 7 16 11 17 55 15 582 l-3 570 -215 0 -215 0 -5 -175 c-3 -96 -9 -181 -13 -187 -12 -19 -250 -18 -266 0 -6 8 -12 80 -13 188 l-3 174 -211 3 c-115 1 -213 -1 -217 -4z"/> <path d="M10310 4448 c0 -448 0 -450 69 -557 56 -87 147 -149 291 -197 45 -16 85 -19 220 -19 175 1 211 8 337 67 65 31 155 118 190 185 49 92 55 157 51 558 l-3 360 -215 0 -215 0 -5 -360 c-5 -394 -4 -385 -67 -426 -62 -41 -178 -9 -205 55 -9 22 -14 133 -18 381 l-5 350 -212 3 -213 2 0 -402z"/> <path d="M11957 4843 c-4 -3 -7 -262 -7 -573 0 -480 2 -569 14 -579 24 -20 765 -9 832 12 72 21 109 42 160 89 70 65 88 113 88 243 1 101 -1 113 -24 145 -31 45 -41 54 -68 69 -28 15 -28 36 1 75 42 56 57 110 57 206 0 100 -12 137 -68 208 -36 45 -67 65 -147 94 -44 16 -89 18 -440 18 -216 0 -395 -3 -398 -7z m640 -324 c20 -33 11 -73 -22 -95 -18 -12 -49 -16 -115 -17 -50 0 -92 2 -94 4 -4 4 -9 97 -7 127 1 10 27 12 112 10 107 -3 111 -4 126 -29z m-8 -415 c29 -36 26 -60 -9 -95 -29 -29 -31 -30 -122 -27 l-93 3 -3 73 -3 72 105 0 c101 0 105 -1 125 -26z"/> <path d="M7357 3203 c-55 -28 -99 -134 -116 -280 -14 -113 0 -194 41 -228 54 -46 126 -27 166 44 31 54 54 54 81 -2 23 -47 54 -67 103 -67 38 0 93 40 102 74 4 16 16 28 31 32 41 10 55 -1 55 -44 0 -42 20 -68 44 -59 8 3 23 31 35 62 35 93 71 131 71 74 0 -10 9 -28 21 -40 17 -17 29 -20 60 -15 37 6 40 5 45 -21 3 -16 12 -37 20 -47 12 -16 18 -18 39 -8 14 6 25 19 25 29 0 31 43 123 58 123 12 0 13 -12 7 -65 -7 -71 2 -95 36 -95 29 0 38 30 45 148 7 104 6 110 -13 116 -29 9 -68 -9 -94 -43 -25 -34 -44 -31 -35 4 4 14 0 27 -8 35 -21 17 -52 -3 -59 -38 -8 -41 -40 -77 -61 -69 -14 6 -16 15 -11 51 6 37 4 46 -12 54 -27 15 -72 3 -90 -24 -20 -32 -43 -31 -43 1 0 14 -7 28 -16 32 -19 7 -39 -12 -62 -58 -25 -50 -55 -50 -87 1 -49 77 -125 80 -189 5 -42 -50 -72 -57 -85 -22 -5 13 -23 38 -41 55 l-31 31 27 58 c62 130 28 242 -59 196z m37 -108 c-10 -46 -66 -162 -72 -146 -9 27 21 164 41 184 16 16 21 17 28 6 5 -8 6 -27 3 -44z m-26 -255 c2 -14 8 -29 13 -34 31 -33 -11 -87 -51 -66 -16 8 -20 21 -20 58 0 27 6 54 12 60 19 19 43 10 46 -18z m286 -10 c20 -46 18 -78 -6 -94 -23 -14 -58 18 -58 55 0 35 19 79 35 79 6 0 19 -18 29 -40z"/> <path d="M1260 3180 c-31 -33 -66 -122 -76 -193 -7 -52 -26 -70 -61 -56 -13 5 -23 10 -23 11 0 2 7 21 15 43 23 64 19 119 -11 154 -35 42 -81 42 -126 2 -31 -27 -32 -32 -33 -103 0 -68 2 -77 32 -114 l31 -40 -30 -49 c-55 -89 -100 -108 -131 -56 -14 23 -17 54 -17 153 0 67 4 140 9 160 11 46 -4 71 -40 66 -21 -3 -26 -13 -42 -73 -43 -160 -52 -192 -69 -232 -22 -49 -64 -103 -82 -103 -7 0 -21 15 -31 34 -16 29 -17 51 -13 193 4 88 3 166 -2 172 -4 7 -18 11 -31 9 -19 -2 -26 -13 -37 -53 -19 -71 -20 -248 -3 -318 37 -150 146 -156 229 -13 35 59 51 62 52 8 0 -28 27 -82 49 -99 26 -20 76 -15 115 12 42 28 106 95 106 110 1 6 11 22 23 37 19 24 27 27 59 22 l37 -6 3 -86 c2 -68 6 -87 21 -96 23 -15 49 2 61 40 17 57 48 115 59 111 8 -2 11 -26 9 -70 -3 -57 -1 -67 16 -76 33 -18 73 -13 108 14 l33 25 37 -25 c46 -31 108 -33 166 -5 l42 20 23 -22 c31 -29 53 -16 73 43 23 65 50 110 60 104 6 -4 10 -14 10 -24 0 -30 45 -64 77 -58 23 4 35 -2 70 -39 38 -39 47 -44 88 -44 52 0 90 21 110 60 12 23 12 30 1 39 -10 8 -22 4 -51 -19 -21 -17 -46 -29 -54 -28 -28 6 -17 32 21 53 75 40 88 123 24 153 -48 24 -91 8 -137 -51 -23 -29 -47 -52 -53 -52 -6 0 -12 21 -14 47 -2 25 -9 51 -17 58 -18 15 -59 3 -86 -26 -27 -29 -39 -30 -39 -5 0 24 -25 45 -45 37 -20 -7 -45 -66 -45 -104 0 -54 -131 -141 -154 -103 -10 16 6 41 30 47 13 4 33 19 44 34 47 66 4 138 -75 126 -50 -8 -91 -50 -107 -112 -14 -51 -49 -90 -74 -80 -12 5 -15 14 -10 39 17 84 19 139 5 148 -15 10 -68 2 -83 -12 -23 -22 -25 -6 -3 24 94 124 102 267 16 267 -21 0 -40 -9 -59 -30z m62 -52 c11 -33 -43 -164 -63 -152 -13 8 -11 34 7 90 9 27 17 55 20 62 4 16 31 16 36 0z m-272 -50 c12 -26 -8 -109 -25 -109 -16 -1 -28 56 -21 95 8 41 31 48 46 14z m549 -240 c-22 -40 -64 -33 -53 9 7 24 32 34 51 20 9 -7 10 -14 2 -29z m541 21 c0 -22 -21 -49 -39 -49 -26 0 -31 9 -19 36 11 24 58 35 58 13z"/> <path d="M3423 3195 c-45 -32 -86 -127 -118 -275 -11 -53 -22 -80 -36 -88 -29 -18 -39 -6 -37 42 0 24 -2 49 -7 55 -13 22 -68 3 -101 -35 -32 -35 -51 -33 -39 5 8 26 -18 45 -43 32 -13 -7 -23 -30 -31 -71 -13 -65 -31 -89 -94 -121 -37 -19 -77 -18 -77 2 0 5 18 20 40 34 45 28 60 52 60 92 0 48 -22 68 -74 68 -56 0 -102 -39 -118 -102 -11 -46 -48 -93 -73 -93 -17 0 -19 21 -5 69 7 24 6 47 -2 74 -14 48 -46 64 -97 48 -22 -6 -40 -7 -52 -1 -46 25 -69 -3 -69 -86 0 -50 -6 -76 -29 -121 -53 -108 -63 -140 -65 -213 -1 -60 2 -74 18 -86 63 -46 125 29 141 168 8 73 33 93 105 83 41 -6 56 -3 90 16 l40 23 39 -22 c45 -25 113 -29 151 -7 33 19 69 19 76 0 13 -33 63 -10 65 29 1 58 79 154 79 99 0 -10 7 -29 16 -41 14 -20 23 -23 63 -20 l46 3 5 -95 c6 -116 29 -165 75 -165 22 0 35 8 53 35 22 32 23 43 20 130 l-3 95 31 3 c27 3 35 -2 53 -31 24 -40 58 -57 110 -57 40 0 105 22 115 39 4 5 25 -1 49 -15 24 -13 58 -24 80 -24 44 0 109 30 132 62 16 22 17 22 28 4 42 -69 111 -87 161 -41 14 13 26 29 26 35 0 18 -30 23 -57 11 -41 -19 -63 8 -63 79 0 64 6 70 70 70 46 0 68 21 46 43 -9 8 -21 17 -28 20 -10 3 -7 15 10 45 25 46 31 139 10 160 -7 7 -26 12 -43 12 -50 0 -108 -84 -122 -178 -4 -23 -14 -37 -34 -48 -35 -18 -36 -28 -5 -65 32 -38 25 -60 -38 -109 -58 -44 -94 -50 -119 -22 -25 28 -22 97 5 116 26 19 38 13 38 -20 0 -30 34 -33 50 -5 17 33 11 58 -17 81 -56 44 -129 6 -158 -81 -23 -70 -100 -128 -147 -113 -26 8 -18 26 22 46 38 20 70 63 70 96 0 13 -12 35 -26 49 -22 22 -32 25 -67 20 -34 -5 -50 -15 -87 -55 -42 -46 -49 -51 -103 -56 -54 -6 -57 -5 -48 12 5 10 17 25 27 32 26 23 89 121 107 170 43 117 -11 210 -90 155z m47 -89 c0 -59 -67 -185 -83 -159 -3 5 3 38 13 74 33 119 70 164 70 85z m694 -12 c9 -23 -4 -65 -31 -97 -22 -28 -23 -28 -23 -6 0 12 5 39 11 58 7 20 13 42 15 49 5 17 21 15 28 -4z m-1566 -257 c4 -41 -28 -97 -54 -97 -24 0 -19 95 7 121 28 28 43 20 47 -24z m282 18 c0 -20 -29 -45 -51 -45 -25 0 -24 25 1 50 20 20 50 17 50 -5z m758 12 c15 -18 -12 -57 -39 -57 -24 0 -26 32 -3 54 19 19 28 20 42 3z m-253 -214 c6 -54 5 -63 -9 -63 -13 0 -16 13 -16 78 1 89 14 81 25 -15z m-937 -93 c-3 -38 -10 -65 -19 -70 -32 -21 -33 22 -2 134 11 40 25 -4 21 -64z"/> <path d="M5649 3146 c-22 -21 -58 -97 -83 -179 -3 -9 -17 -22 -31 -27 -32 -12 -32 -33 0 -54 40 -26 33 -62 -22 -113 -63 -56 -73 -45 -60 62 8 63 7 79 -5 91 -22 23 -62 8 -104 -39 l-37 -41 6 37 c4 24 1 39 -8 47 -20 17 -53 -4 -61 -38 -23 -105 -35 -123 -101 -156 -36 -18 -59 -20 -67 -7 -11 17 5 39 34 50 31 10 60 56 60 95 0 38 -46 69 -93 63 -29 -4 -48 -16 -81 -52 -53 -59 -80 -59 -82 -1 -3 91 -94 64 -94 -28 0 -28 -7 -52 -19 -67 -28 -35 -40 -16 -43 71 -2 57 -7 75 -18 77 -30 6 -45 -15 -46 -64 0 -26 -2 -53 -2 -60 -5 -34 -110 -98 -143 -88 -28 9 -19 26 24 50 50 27 73 76 56 117 -31 76 -140 54 -188 -39 -16 -31 -14 -105 5 -131 22 -31 66 -52 112 -52 44 0 112 25 112 40 0 18 22 10 42 -15 34 -44 76 -29 133 48 24 33 32 37 70 37 41 0 44 -2 64 -43 12 -24 33 -49 47 -55 38 -18 97 -14 150 9 l48 20 16 -22 c28 -36 51 -21 74 48 22 65 54 109 68 95 5 -5 4 -21 -2 -36 -26 -70 -2 -126 56 -126 35 0 88 31 104 60 11 20 12 20 51 -19 32 -34 46 -41 77 -41 52 0 135 42 167 85 29 37 52 45 61 20 8 -20 -13 -45 -38 -45 -16 0 -19 -6 -16 -32 3 -31 6 -33 45 -36 36 -3 47 1 68 24 33 35 32 79 -2 129 -18 27 -27 53 -27 84 -1 26 -6 46 -14 49 -15 5 -72 -54 -72 -74 0 -8 -7 -25 -16 -39 -20 -31 -116 -105 -137 -105 -27 0 -57 49 -57 94 0 52 13 66 61 66 67 0 93 27 49 50 -24 13 -26 38 -4 69 21 29 24 122 5 144 -20 24 -62 21 -92 -7z m47 -88 c-8 -48 -11 -55 -35 -68 -17 -9 -18 -6 -9 38 13 67 16 72 34 72 14 0 15 -7 10 -42z m-1126 -203 c0 -19 -38 -48 -54 -42 -18 7 -12 35 11 54 17 13 43 7 43 -12z m530 10 c10 -13 10 -19 -5 -35 -22 -24 -55 -26 -55 -3 0 17 27 53 40 53 4 0 13 -7 20 -15z"/> <path d="M6295 2921 c-42 -25 -65 -53 -81 -98 -20 -57 -17 -88 12 -122 29 -35 59 -39 105 -16 27 14 32 14 51 0 28 -19 57 -19 82 0 26 20 53 19 64 -1 15 -26 50 -8 61 31 18 68 44 115 63 115 12 0 18 -7 18 -23 0 -36 32 -59 76 -55 34 3 40 -1 52 -25 16 -34 60 -57 108 -57 47 0 104 41 104 74 0 36 -11 38 -47 5 -37 -32 -66 -35 -71 -6 -2 12 7 22 31 32 41 17 71 71 61 110 -16 63 -107 72 -154 16 -14 -17 -34 -42 -46 -57 -28 -37 -44 -24 -44 36 0 39 -4 50 -19 55 -28 8 -67 -10 -92 -44 -25 -34 -44 -31 -35 4 8 30 -16 50 -42 36 -13 -7 -24 -30 -32 -63 -17 -72 -54 -128 -85 -128 -22 0 -25 27 -9 86 18 72 13 88 -35 102 -51 16 -61 15 -96 -7z m623 -65 c5 -22 -16 -46 -39 -46 -25 0 -26 45 -1 59 22 13 36 9 40 -13z m-564 -33 c-10 -79 -53 -123 -69 -72 -14 43 21 119 55 119 18 0 19 -5 14 -47z"/> </g> </svg> 